<?xml version="1.0" encoding="UTF-8"?>
<svg width="32px" height="32px" viewBox="0 0 32 32" version="1.1" xmlns="http://www.w3.org/2000/svg" xmlns:xlink="http://www.w3.org/1999/xlink">
    <!-- Generator: Sketch 50.2 (55047) - http://www.bohemiancoding.com/sketch -->
    <title>github</title>
    <desc>Created with Sketch.</desc>
    <defs></defs>
    <g id="github" stroke="none" stroke-width="1" fill="none" fill-rule="evenodd">
        <g id="Octicons-mark-github" transform="translate(4.000000, 4.000000)" fill="#000000" fill-rule="nonzero">
            <path d="M12,0 C5.37304688,0 0,5.50750751 0,12.3003003 C0,17.7357357 3.438,22.3453453 8.20678125,23.9714595 C8.80664062,24.0840841 9.02564062,23.7041922 9.02564062,23.3798679 C9.02564062,23.0870631 9.01464844,22.1171171 9.00878906,21.0900901 C5.671875,21.8333213 4.96654688,19.6396396 4.96654688,19.6396396 C4.42017187,18.2192192 3.63426563,17.8408408 3.63426563,17.8408408 C2.54369531,17.0780781 3.717,17.0930931 3.717,17.0930931 C4.92182813,17.1786667 5.55614063,18.3603604 5.55614063,18.3603604 C6.62695312,20.2402402 8.36571094,19.6966967 9.04832813,19.3813814 C9.15740625,18.5885886 9.46795313,18.045045 9.81004688,17.7387387 C7.14623438,17.4279399 4.344,16.3723724 4.344,11.6591471 C4.344,10.3152913 4.81202344,9.21921922 5.578125,8.3581021 C5.45580469,8.04578979 5.04271875,6.79428228 5.69676563,5.10135736 C5.69676563,5.10135736 6.703125,4.77102703 8.99704688,6.36261862 C9.95357812,6.0886006 10.9797187,5.95346547 11.9999766,5.94894895 C13.0195078,5.95346547 14.0463516,6.09009009 15.0043828,6.36410811 C17.2939453,4.77102703 18.3017578,5.10284685 18.3017578,5.10284685 C18.9580078,6.79728529 18.5449219,8.04727928 18.421875,8.3581021 C19.1909063,9.21921922 19.6552734,10.3153153 19.6552734,11.6591471 C19.6552734,16.3843844 16.8486328,17.4249129 14.1753047,17.7297297 C14.6074453,18.1111111 14.9897578,18.8588589 14.9897578,20.006006 C14.9897578,21.6501622 14.9736328,22.975976 14.9736328,23.3813814 C14.9736328,23.7087087 15.1918828,24.0915796 15.7998047,23.9714595 C20.5649531,22.3423423 24,17.7327327 24,12.3003003 C24,5.50750751 18.6269531,0 12,0 Z" id="Shape"></path>
        </g>
    </g>
</svg>