<?xml version="1.0" encoding="utf-8"?>
<!-- Generator: Adobe Illustrator 21.1.0, SVG Export Plug-In . SVG Version: 6.00 Build 0)  -->
<svg version="1.1" id="Layer_1" xmlns="http://www.w3.org/2000/svg" xmlns:xlink="http://www.w3.org/1999/xlink" x="0px" y="0px"
	 width="24px" height="24px" viewBox="0 0 24 24" style="enable-background:new 0 0 24 24;" xml:space="preserve">
<style type="text/css">
	.st0{fill:#00CA6D;}
</style>
<g>
	<g>
		<path class="st0" d="M22.9,9.8l-1.5-0.1c-0.6,0-1.2-0.4-1.5-1c0,0,0,0,0,0c-0.3-0.6-0.1-1.3,0.3-1.8l1-1.1C21.7,5.4,21.6,4.6,21,4
			l-1-1c-0.6-0.6-1.4-0.7-1.8-0.3l-1.1,1c-0.5,0.4-1.2,0.5-1.8,0.3c0,0,0,0,0,0c-0.6-0.2-1-0.8-1-1.5l-0.1-1.5
			c0-0.6-0.6-1.1-1.4-1.1h-1.4c-0.8,0-1.4,0.5-1.4,1.1L9.7,2.5c0,0.6-0.4,1.2-1,1.5c0,0,0,0,0,0C8.1,4.3,7.4,4.2,6.9,3.7l-1.1-1
			C5.4,2.3,4.6,2.4,4,3L3,4C2.4,4.6,2.3,5.4,2.7,5.8l1,1.1C4.2,7.4,4.3,8.1,4,8.7c0,0,0,0,0,0c-0.2,0.6-0.8,1-1.5,1L1.1,9.8
			C0.5,9.8,0,10.5,0,11.3v1.4c0,0.8,0.5,1.4,1.1,1.4l1.5,0.1c0.6,0,1.2,0.4,1.5,1c0,0,0,0,0,0c0.2,0.6,0.1,1.3-0.3,1.8l-1,1.1
			C2.3,18.6,2.4,19.4,3,20l1,1c0.6,0.6,1.4,0.7,1.8,0.3l1.1-1c0.5-0.4,1.2-0.5,1.8-0.3c0,0,0,0,0,0c0.6,0.2,1,0.8,1,1.5l0.1,1.5
			c0,0.6,0.6,1.1,1.4,1.1h1.4c0.8,0,1.4-0.5,1.4-1.1l0.1-1.5c0-0.6,0.4-1.2,1-1.5c0,0,0,0,0,0c0.6-0.3,1.3-0.1,1.8,0.3l1.1,1
			c0.4,0.4,1.2,0.3,1.8-0.3l1-1c0.6-0.6,0.7-1.4,0.3-1.8l-1-1.1c-0.4-0.5-0.5-1.2-0.3-1.8c0,0,0,0,0,0c0.2-0.6,0.8-1,1.5-1l1.5-0.1
			c0.6,0,1.1-0.6,1.1-1.4v-1.4C24,10.5,23.5,9.8,22.9,9.8z M12,15.7c-2,0-3.7-1.6-3.7-3.7c0-2,1.6-3.7,3.7-3.7s3.7,1.6,3.7,3.7
			C15.7,14,14,15.7,12,15.7z"/>
	</g>
</g>
</svg>
