<?xml version="1.0" encoding="UTF-8"?>
<svg width="32px" height="32px" viewBox="0 0 32 32" version="1.1" xmlns="http://www.w3.org/2000/svg" xmlns:xlink="http://www.w3.org/1999/xlink">
    <!-- Generator: Sketch 50.2 (55047) - http://www.bohemiancoding.com/sketch -->
    <title>Artboard</title>
    <desc>Created with Sketch.</desc>
    <defs></defs>
    <g id="Artboard" stroke="none" stroke-width="1" fill="none" fill-rule="evenodd">
        <g id="F_icon" transform="translate(4.000000, 4.000000)" fill-rule="nonzero">
            <path d="M22.6176371,23.9357838 C23.3454208,23.9357838 23.9355985,23.3456062 23.9355985,22.6176371 L23.9355985,1.37254054 C23.9355985,0.644478764 23.3455135,0.0544864865 22.6176371,0.0544864865 L1.37254054,0.0544864865 C0.644478764,0.0544864865 0.0544864865,0.644478764 0.0544864865,1.37254054 L0.0544864865,22.6176371 C0.0544864865,23.3455135 0.6443861,23.9357838 1.37254054,23.9357838 L22.6176371,23.9357838 Z" id="Blue_1_" fill="#3C5A99"></path>
            <path d="M16.5321081,23.9357838 L16.5321081,14.6876293 L19.6362625,14.6876293 L20.1010656,11.0834595 L16.5321081,11.0834595 L16.5321081,8.78242471 C16.5321081,7.73893436 16.8218687,7.02783012 18.3182085,7.02783012 L20.2267181,7.02699614 L20.2267181,3.80339768 C19.8966486,3.7594749 18.7637375,3.66134363 17.4456834,3.66134363 C14.6940232,3.66134363 12.8101622,5.34097297 12.8101622,8.42548263 L12.8101622,11.0834595 L9.69803861,11.0834595 L9.69803861,14.6876293 L12.8101622,14.6876293 L12.8101622,23.9357838 L16.5321081,23.9357838 Z" id="f" fill="#FFFFFF"></path>
        </g>
    </g>
</svg>