<svg 
 xmlns="http://www.w3.org/2000/svg"
 xmlns:xlink="http://www.w3.org/1999/xlink"
 width="13px" height="18px">
<path fill-rule="evenodd"  fill="rgb(255, 255, 255)"
 d="M12.525,12.621 L7.919,16.901 C7.919,16.901 7.186,18.000 6.500,18.000 C5.814,18.000 5.081,16.901 5.081,16.901 L0.475,12.621 C-0.126,12.020 -0.126,11.044 0.475,10.443 C1.076,9.841 2.052,9.841 2.653,10.443 L5.000,12.790 L5.000,1.500 C5.000,0.672 5.672,-0.000 6.500,-0.000 C7.328,-0.000 8.000,0.672 8.000,1.500 L8.000,12.790 L10.347,10.443 C10.948,9.841 11.924,9.841 12.525,10.443 C13.126,11.044 13.126,12.020 12.525,12.621 Z"/>
</svg>