<?xml version="1.0" encoding="utf-8"?>
<!-- Generator: Adobe Illustrator 21.1.0, SVG Export Plug-In . SVG Version: 6.00 Build 0)  -->
<svg version="1.1" id="Layer_1" xmlns="http://www.w3.org/2000/svg" xmlns:xlink="http://www.w3.org/1999/xlink" x="0px" y="0px"
	 width="24px" height="23.6px" viewBox="0 0 24 23.6" style="enable-background:new 0 0 24 23.6;" xml:space="preserve">
<style type="text/css">
	.st0{fill:url(#SVGID_1_);}
	.st1{fill:url(#SVGID_2_);}
	.st2{fill:url(#SVGID_3_);}
	.st3{fill:url(#SVGID_4_);}
</style>
<g>
	<g id="Layer_2_1_">
		<g>
			
				<linearGradient id="SVGID_1_" gradientUnits="userSpaceOnUse" x1="5.8324" y1="25.8991" x2="15.0324" y2="6.4591" gradientTransform="matrix(1 0 0 -1 0 24.6667)">
				<stop  offset="0" style="stop-color:#A0CBFF"/>
				<stop  offset="0.3941" style="stop-color:#A0CBFE"/>
				<stop  offset="0.583" style="stop-color:#8EC2FC"/>
				<stop  offset="0.7838" style="stop-color:#83BCFB"/>
				<stop  offset="1" style="stop-color:#7FBAFB"/>
			</linearGradient>
			<rect class="st0" width="24" height="23.6"/>
		</g>
	</g>
	<g id="Layer_2">
		<g>
			
				<linearGradient id="SVGID_2_" gradientUnits="userSpaceOnUse" x1="9.0981" y1="22.5103" x2="14.2981" y2="5.2302" gradientTransform="matrix(1 0 0 -1 0 24.6667)">
				<stop  offset="0" style="stop-color:#090058"/>
				<stop  offset="1" style="stop-color:#070033"/>
			</linearGradient>
			<rect x="1.9" y="1.9" class="st1" width="20.2" height="19.8"/>
		</g>
	</g>
	<g id="Layer_4">
		<g>
			
				<linearGradient id="SVGID_3_" gradientUnits="userSpaceOnUse" x1="2.9709" y1="24.8649" x2="12.1709" y2="5.4249" gradientTransform="matrix(1 0 0 -1 0 24.6667)">
				<stop  offset="0" style="stop-color:#A0CBFF"/>
				<stop  offset="0.3941" style="stop-color:#A0CBFE"/>
				<stop  offset="0.583" style="stop-color:#8EC2FC"/>
				<stop  offset="0.7838" style="stop-color:#83BCFB"/>
				<stop  offset="1" style="stop-color:#7FBAFB"/>
			</linearGradient>
			<path class="st2" d="M5.8,6.7c0,0,1.5,0,2.8,0c1.3,0,2.2,0.3,2.8,0.8c0.6,0.5,1,1.3,1,2.3S12,11.5,11.5,12
				c-0.7,0.7-1.5,1.1-2.9,1.2c-0.4,0-0.7,0-0.7,0v3.1h-2L5.8,6.7L5.8,6.7z M7.8,11.5c0.2,0,0.4,0,0.7,0c1.1,0,1.8-0.7,1.8-1.7
				c0-0.9-0.6-1.6-1.6-1.7c-0.4,0-0.8,0-0.8,0V11.5z"/>
			<g>
				
					<linearGradient id="SVGID_4_" gradientUnits="userSpaceOnUse" x1="8.2113" y1="27.4031" x2="17.4476" y2="7.8863" gradientTransform="matrix(1 0 0 -1 0 24.6667)">
					<stop  offset="0" style="stop-color:#A0CBFF"/>
					<stop  offset="0.3941" style="stop-color:#A0CBFE"/>
					<stop  offset="0.583" style="stop-color:#8EC2FC"/>
					<stop  offset="0.7838" style="stop-color:#83BCFB"/>
					<stop  offset="1" style="stop-color:#7FBAFB"/>
				</linearGradient>
				<path class="st3" d="M13.1,14.2c0.4,0.3,1.4,0.6,2,0.6c0.7,0,0.9-0.2,0.9-0.6c0-0.4-0.2-0.8-1.1-1c-1.5-0.5-2-1.1-2-1.9
					c0-1.4,1.1-2.4,2.9-2.4c0.8,0,1.5,0.3,1.9,0.5v1.6c-0.3-0.2-1.2-0.6-1.9-0.6c-0.5,0-0.8,0.2-0.8,0.6c0,0.3,0.3,0.5,1.2,0.8
					c1.4,0.5,1.9,1.2,1.9,2.2c0,1.3-1,2.4-3.1,2.3c-0.7,0-1.5-0.3-2-0.6L13.1,14.2L13.1,14.2z"/>
			</g>
		</g>
	</g>
</g>
</svg>
