<?xml version="1.0" encoding="utf-8"?>
<!-- Generator: Adobe Illustrator 21.1.0, SVG Export Plug-In . SVG Version: 6.00 Build 0)  -->
<svg version="1.1" id="Layer_1" xmlns="http://www.w3.org/2000/svg" xmlns:xlink="http://www.w3.org/1999/xlink" x="0px" y="0px"
	 width="100px" height="50px" viewBox="0 0 100 50" style="enable-background:new 0 0 100 50;" xml:space="preserve">
<style type="text/css">
	.st0{fill:#8179A5;}
</style>
<path class="st0" d="M31,28.6l-4.6,4.3c0,0-0.7,1.1-1.4,1.1c-0.7,0-1.4-1.1-1.4-1.1L19,28.6c-0.6-0.6-0.6-1.6,0-2.2
	c0.6-0.6,1.6-0.6,2.2,0l2.3,2.3V17.5c0-0.8,0.7-1.5,1.5-1.5c0.8,0,1.5,0.7,1.5,1.5v11.3l2.3-2.3c0.6-0.6,1.6-0.6,2.2,0
	C31.6,27,31.6,28,31,28.6z"/>
<path class="st0" d="M77,25l3-3c0.6-0.6,0.6-1.5,0-2c-0.6-0.6-1.5-0.6-2,0l-3,3l-3-3c-0.6-0.6-1.5-0.6-2,0c-0.6,0.6-0.6,1.5,0,2l3,3
	l-3,3c-0.6,0.6-0.6,1.5,0,2c0.6,0.6,1.5,0.6,2,0l3-3l3,3c0.6,0.6,1.5,0.6,2,0c0.6-0.6,0.6-1.5,0-2L77,25z"/>
</svg>
