<svg 
 xmlns="http://www.w3.org/2000/svg"
 xmlns:xlink="http://www.w3.org/1999/xlink"
 width="26px" height="16px">
<path fill-rule="evenodd"  fill="rgb(255, 255, 255)"
 d="M25.602,9.095 L18.839,15.529 C18.191,16.145 17.140,16.145 16.491,15.529 C15.843,14.913 15.843,13.914 16.491,13.298 L22.135,7.998 L16.491,2.699 C15.843,2.083 15.843,1.084 16.491,0.468 C17.140,-0.148 18.191,-0.148 18.839,0.468 L25.602,6.902 C26.117,7.391 26.117,8.606 25.602,9.095 ZM9.538,15.529 C8.888,16.145 7.834,16.145 7.183,15.529 L0.399,9.095 C-0.118,8.606 -0.118,7.391 0.399,6.902 L7.183,0.468 C7.834,-0.148 8.888,-0.148 9.538,0.468 C10.189,1.084 10.189,2.083 9.538,2.699 L3.877,7.998 L9.538,13.298 C10.189,13.914 10.189,14.913 9.538,15.529 Z"/>
</svg>